<!-- Generated by IcoMoon.io -->
<svg version="1.1" xmlns="http://www.w3.org/2000/svg" width="512" height="512" viewBox="0 0 512 512">
<title></title>
<g id="icomoon-ignore">
</g>
<path d="M96 0v512h384v-512h-384zM288 128.165c35.255 0 63.835 28.58 63.835 63.835s-28.58 63.835-63.835 63.835-63.835-28.58-63.835-63.835 28.58-63.835 63.835-63.835v0zM384 384h-192v-32c0-35.348 28.653-64 64-64v0h64c35.348 0 64 28.652 64 64v32z"></path>
<path d="M32 32h48v96h-48v-96z"></path>
<path d="M32 160h48v96h-48v-96z"></path>
<path d="M32 288h48v96h-48v-96z"></path>
<path d="M32 416h48v96h-48v-96z"></path>
</svg>
